<svg width="279" height="292" viewBox="0 0 279 292" fill="none" xmlns="http://www.w3.org/2000/svg">
<path d="M62.5753 47.2613L60.4482 58.445L71.0529 61.4391L69.7352 49.4992L62.5753 47.2613Z" fill="#A0616A"/>
<path d="M0 278.765C0 279.116 0.28185 279.399 0.63283 279.399H278.367C278.718 279.399 279 279.116 279 278.765C279 278.413 278.718 278.131 278.367 278.131H0.63283C0.28185 278.131 0 278.413 0 278.765Z" fill="#303030"/>
<path d="M189.328 126.913H79.9606C67.5583 126.913 57.5043 136.982 57.5043 149.403V255.613C57.5043 268.034 67.5583 278.103 79.9605 278.103H189.328C201.73 278.103 211.784 268.034 211.784 255.613V149.403C211.784 136.982 201.73 126.913 189.328 126.913V126.913Z" fill="white"/>
<path d="M189.328 278.635H79.9606C67.285 278.635 56.9725 268.307 56.9725 255.613V149.403C56.9725 136.709 67.285 126.381 79.9606 126.381H189.328C202.003 126.381 212.316 136.709 212.316 149.403V255.613C212.316 268.307 202.003 278.635 189.328 278.635H189.328ZM79.9606 127.446C67.8713 127.446 58.0361 137.296 58.0361 149.403V255.613C58.0361 267.72 67.8713 277.57 79.9606 277.57H189.328C201.417 277.57 211.252 267.72 211.252 255.613V149.403C211.252 137.296 201.417 127.446 189.328 127.446H79.9606V127.446Z" fill="#303030"/>
<path d="M197.25 172.959H153.29C151.426 172.959 149.909 171.44 149.909 169.573C149.909 167.705 151.426 166.186 153.29 166.186H197.25C199.114 166.186 200.631 167.705 200.631 169.573C200.631 171.44 199.114 172.959 197.25 172.959H197.25Z" fill="#2C61F4"/>
<path d="M156.01 199.591H113.279C112.202 199.591 111.325 198.713 111.325 197.634C111.325 196.555 112.202 195.678 113.279 195.678H156.01C157.087 195.678 157.963 196.555 157.963 197.634C157.963 198.713 157.087 199.591 156.01 199.591V199.591Z" fill="#2C61F4"/>
<path d="M95.6139 134.187H71.2179C71.1268 134.187 71.0529 134.261 71.0529 134.352V137.197C71.0529 137.288 71.1268 137.362 71.2179 137.362H95.6139C95.705 137.362 95.7789 137.288 95.7789 137.197V134.352C95.7789 134.261 95.705 134.187 95.6139 134.187Z" fill="#2C61F4"/>
<path d="M177.788 137.362C179.188 137.362 180.324 136.225 180.324 134.822C180.324 133.419 179.188 132.282 177.788 132.282C176.387 132.282 175.252 133.419 175.252 134.822C175.252 136.225 176.387 137.362 177.788 137.362Z" fill="#303030"/>
<path d="M184.762 137.362C186.162 137.362 187.298 136.225 187.298 134.822C187.298 133.419 186.162 132.282 184.762 132.282C183.361 132.282 182.226 133.419 182.226 134.822C182.226 136.225 183.361 137.362 184.762 137.362Z" fill="#303030"/>
<path d="M191.736 137.362C193.136 137.362 194.272 136.225 194.272 134.822C194.272 133.419 193.136 132.282 191.736 132.282C190.335 132.282 189.2 133.419 189.2 134.822C189.2 136.225 190.335 137.362 191.736 137.362Z" fill="#303030"/>
<path d="M79.6944 210.065C79.6944 210.416 79.9762 210.699 80.3272 210.699H188.961C189.312 210.699 189.594 210.416 189.594 210.065C189.594 209.713 189.312 209.431 188.961 209.431H80.3272C79.9762 209.431 79.6944 209.713 79.6944 210.065Z" fill="#303030"/>
<path d="M226.997 68.4662H119.129C116.078 68.4662 113.596 65.9806 113.596 62.9257V5.54047C113.596 2.48563 116.078 0 119.129 0H226.997C230.048 0 232.529 2.48562 232.529 5.54047V62.9257C232.529 65.9806 230.048 68.4662 226.997 68.4662Z" fill="white"/>
<path d="M226.997 68.4662H119.129C116.078 68.4662 113.596 65.9806 113.596 62.9257V5.54047C113.596 2.48563 116.078 0 119.129 0H226.997C230.048 0 232.529 2.48562 232.529 5.54047V62.9257C232.529 65.9806 230.048 68.4662 226.997 68.4662ZM119.129 0.925219C116.588 0.925219 114.52 2.99567 114.52 5.54047V62.9257C114.52 65.4705 116.588 67.541 119.129 67.541H226.997C229.538 67.541 231.605 65.4705 231.605 62.9257V5.54047C231.605 2.99567 229.538 0.925219 226.997 0.925219H119.129Z" fill="#303030"/>
<path d="M218.672 6.93914C219.437 6.93914 220.057 6.31779 220.057 5.55132C220.057 4.78484 219.437 4.16349 218.672 4.16349C217.906 4.16349 217.286 4.78484 217.286 5.55132C217.286 6.31779 217.906 6.93914 218.672 6.93914Z" fill="#303030"/>
<path d="M222.367 6.93914C223.132 6.93914 223.753 6.31779 223.753 5.55132C223.753 4.78484 223.132 4.16349 222.367 4.16349C221.602 4.16349 220.981 4.78484 220.981 5.55132C220.981 6.31779 221.602 6.93914 222.367 6.93914Z" fill="#303030"/>
<path d="M226.062 6.93914C226.828 6.93914 227.448 6.31779 227.448 5.55132C227.448 4.78484 226.828 4.16349 226.062 4.16349C225.297 4.16349 224.677 4.78484 224.677 5.55132C224.677 6.31779 225.297 6.93914 226.062 6.93914Z" fill="#303030"/>
<path d="M121.449 27.9879C121.067 27.9879 120.756 28.2991 120.756 28.6818C120.756 28.8684 120.828 29.0409 120.959 29.1683C121.09 29.3034 121.263 29.3757 121.449 29.3757H225.138C225.521 29.3757 225.831 29.0644 225.831 28.6818C225.831 28.4952 225.759 28.3226 225.629 28.1952C225.497 28.0602 225.325 27.9879 225.138 27.9879H121.449Z" fill="#F89627"/>
<path d="M212.205 27.7566V29.607H121.449C121.195 29.607 120.964 29.5052 120.798 29.3341C120.627 29.1675 120.525 28.9362 120.525 28.6818C120.525 28.1729 120.941 27.7566 121.449 27.7566H212.205Z" fill="#2C61F4"/>
<path d="M223.984 24.287H214.745C213.727 24.287 212.898 23.4571 212.898 22.4366C212.898 21.416 213.727 20.5861 214.745 20.5861H223.984C225.003 20.5861 225.831 21.416 225.831 22.4366C225.831 23.4571 225.003 24.287 223.984 24.287Z" fill="#F89627"/>
<path d="M163.472 14.5722H122.142C121.123 14.5722 120.294 13.7423 120.294 12.7218C120.294 11.7012 121.123 10.8713 122.142 10.8713H163.472C164.491 10.8713 165.32 11.7012 165.32 12.7218C165.32 13.7423 164.491 14.5722 163.472 14.5722Z" fill="#F89627"/>
<path d="M121.449 48.8053C121.067 48.8053 120.756 49.1166 120.756 49.4992C120.756 49.6858 120.828 49.8584 120.959 49.9858C121.09 50.1208 121.263 50.1931 121.449 50.1931H225.138C225.521 50.1931 225.831 49.8819 225.831 49.4992C225.831 49.3126 225.759 49.1401 225.629 49.0127C225.497 48.8776 225.325 48.8053 225.138 48.8053H121.449Z" fill="#F89627"/>
<path d="M176.637 48.574V50.4244H121.449C121.195 50.4244 120.964 50.3226 120.798 50.1515C120.627 49.985 120.525 49.7536 120.525 49.4992C120.525 48.9903 120.941 48.574 121.449 48.574H176.637Z" fill="#2C61F4"/>
<path d="M223.984 45.1044H214.745C213.727 45.1044 212.898 44.2745 212.898 43.254C212.898 42.2334 213.727 41.4035 214.745 41.4035H223.984C225.003 41.4035 225.831 42.2334 225.831 43.254C225.831 44.2745 225.003 45.1044 223.984 45.1044Z" fill="#F89627"/>
<path d="M112.826 53.7442C115.138 51.8304 117.999 51.4742 119.215 52.9484C120.431 54.4226 119.542 57.1686 117.228 59.0828C116.314 59.8602 115.228 60.4071 114.06 60.6777L104.158 68.6628L100.516 63.9296L110.663 56.5602C111.149 55.4621 111.891 54.4965 112.826 53.7442H112.826Z" fill="#A0616A"/>
<path d="M55.5972 71.7607C55.5922 71.4076 55.5955 68.3272 57.8726 66.3803C60.4883 64.1438 64.1792 65.049 65.4737 65.3665C68.4641 66.1 68.7094 67.3847 71.5177 68.7048C76.7718 71.1745 70.1886 69.9104 73.315 69.1184C74.3971 68.8443 89.9656 67.763 93.8409 65.3743C101.378 60.7285 106.513 57.9113 106.513 57.9113L109.87 64.6356C109.87 64.6356 105.016 71.3956 98.1838 76.4036C91.1756 81.5406 87.6714 84.1092 82.3461 85.1016C81.8875 85.187 70.6089 87.1156 61.5249 80.3187C59.4528 78.7684 55.6564 75.9278 55.5972 71.7607V71.7607V71.7607Z" fill="#F89627"/>
<path d="M66.0112 54.6593C72.4701 54.6593 77.706 49.4154 77.706 42.9469C77.706 36.4783 72.4701 31.2345 66.0112 31.2345C59.5523 31.2345 54.3163 36.4783 54.3163 42.9469C54.3163 49.4154 59.5523 54.6593 66.0112 54.6593Z" fill="#A0616A"/>
<path d="M157.601 121.635L145.557 109.288L139.34 115.783L148.313 127.622L157.214 128.641L157.601 121.635Z" fill="#A0616A"/>
<path d="M88.8287 98.4817C89.5331 98.5404 91.7718 98.9895 93.9115 97.8105C95.3718 97.0059 96.1208 95.8095 96.3737 95.429C99.5118 90.7088 111.557 83.3482 122.367 82.8952C124.815 82.7927 126.426 83.0767 127.891 83.8413C129.967 84.9255 130.796 86.4785 133.432 90.1164C134.873 92.1064 136.468 93.9811 137.927 95.9584C146.468 107.534 149.706 108.443 149.375 112.154C149.008 116.272 144.574 120.178 141.627 119.727C140.42 119.542 139.953 118.702 138.34 117C133.612 112.012 131.656 112.933 128.29 109.112C124.36 104.651 124.874 100.952 122.824 100.809C120.923 100.676 120.115 103.832 116.055 108.024C114.198 109.942 112.875 110.822 108.845 113.622C93.1526 124.525 92.9022 125.291 89.7352 126.161C88.3496 126.541 78.5153 129.242 75.012 124.944C69.5298 118.22 82.4811 97.9536 88.8287 98.4817L88.8287 98.4817Z" fill="#303030"/>
<path d="M153.919 124.425C154.805 124.027 155.84 123.561 156.174 122.49C156.399 121.765 156.269 120.872 155.803 120.254C155.265 119.542 154.469 119.448 154.502 119.322C154.551 119.13 156.433 119.205 158.499 119.936C158.889 120.074 160.655 120.721 162.902 122.477C164.702 123.885 164.46 124.167 165.589 124.979C169.054 127.47 172.304 125.506 174.179 127.843C174.903 128.744 175.211 130.025 174.907 131.06C174.295 133.138 171.321 133.854 169.696 134.223C165.781 135.113 162.818 134.386 159.724 133.864C149.203 132.089 143.291 133.706 142.5 131.265C142.35 130.803 142.593 130.842 143.404 127.451C144.205 124.105 144.179 123.186 144.861 122.918C145.887 122.514 146.577 124.349 149.163 124.977C151.454 125.534 153.345 124.683 153.919 124.425L153.919 124.425Z" fill="#303030"/>
<path d="M136.189 162.027L133.146 145.037L124.359 146.915L125.146 161.757L131.94 167.606L136.189 162.027Z" fill="#A0616A"/>
<path d="M92.2649 104.193C92.8149 104.637 94.4155 106.268 96.8471 106.496C98.5065 106.651 99.7971 106.082 100.22 105.91C105.463 103.769 119.557 104.452 128.755 110.157C130.838 111.448 132.012 112.59 132.796 114.046C133.906 116.111 133.721 117.862 133.862 122.354C133.939 124.812 134.208 127.26 134.306 129.717C134.883 144.098 137.053 146.671 134.698 149.556C132.086 152.756 126.226 153.495 124.041 151.465C123.146 150.633 123.23 149.675 122.85 147.36C121.735 140.573 119.6 140.236 118.957 135.181C118.206 129.279 120.706 126.508 119.09 125.236C117.591 124.057 115.153 126.214 109.443 127.4C106.831 127.943 105.243 127.927 100.339 127.977C81.2403 128.174 80.6034 128.667 77.4954 127.606C76.1356 127.141 66.4841 123.845 65.9947 118.319C65.2288 109.672 87.3087 100.186 92.2649 104.193L92.2649 104.193V104.193Z" fill="#303030"/>
<path d="M131.577 162.265C132.534 162.433 133.652 162.631 134.528 161.932C135.121 161.459 135.515 160.646 135.475 159.873C135.43 158.981 134.824 158.456 134.921 158.37C135.069 158.238 136.585 159.359 137.884 161.126C138.129 161.46 139.229 162.988 140.103 165.705C140.803 167.882 140.445 167.979 140.924 169.286C142.394 173.296 146.184 173.499 146.426 176.487C146.519 177.64 146.056 178.872 145.224 179.558C143.553 180.934 140.691 179.853 139.139 179.245C135.401 177.779 133.356 175.512 131.089 173.34C123.378 165.954 117.58 163.967 118.294 161.502C118.429 161.036 118.608 161.205 121.181 158.856C123.719 156.537 124.213 155.762 124.928 155.923C126.003 156.167 125.545 158.073 127.332 160.047C128.916 161.796 130.958 162.156 131.577 162.265H131.577Z" fill="#303030"/>
<path d="M67.6055 45.186C68.0608 43.5549 67.489 42.9605 68.0718 42.2284C68.0718 42.2283 68.3064 41.9337 70.4033 41.1387C69.7846 37.5437 70.2479 36.9358 70.2479 36.9358C70.7817 36.2352 71.8512 36.0659 72.5793 36.1575C74.1192 36.3513 74.3918 37.7454 75.3771 37.7141C76.7382 37.6709 78.3706 34.9423 77.8639 32.5773C77.4506 30.6481 75.6684 29.2154 75.2216 29.464C74.7787 29.7105 73.1841 28.6236 72.5793 28.8414C72.1663 28.9901 70.2224 28.7922 69.7816 28.997C69.3002 29.2207 67.9217 30.6132 67.7899 30.4378C66.874 29.2185 66.8935 28.7928 66.3621 28.53C65.4205 28.0644 64.3969 28.925 62.6318 29.7753C59.0001 31.5248 57.9366 30.4812 56.2591 31.9546C55.4117 32.6989 54.9573 34.1213 54.0831 36.9358C52.8605 40.8719 52.2492 42.8399 52.8397 44.719C53.4418 46.6353 54.3286 46.2182 55.6374 48.9219C57.0944 51.9315 56.5922 53.6808 57.9689 54.3701C59.0329 54.9028 60.7427 54.5637 61.3883 53.5918C62.4937 51.9276 59.6367 49.6765 60.6112 47.0539C61.2093 45.4441 63.0545 44.2234 64.1861 44.5633C65.4655 44.9476 65.5598 47.2451 66.3621 47.2096C67.0492 47.1791 67.5262 45.4702 67.6056 45.186L67.6055 45.1859L67.6055 45.186Z" fill="#303030"/>
<path d="M58.7461 56.3937C61.1393 53.7063 70.8873 56.4878 71.8022 60.7523C72.1786 62.5063 70.7893 63.2469 71.1805 65.2665C71.7527 68.2204 74.9928 68.019 77.3977 71.026C80.812 75.295 77.2946 79.4681 81.128 86.5923C81.9472 88.1147 82.6376 89.3977 84.0812 90.6395C87.3939 93.4891 90.4768 92.5118 92.1636 95.1538C93.425 97.1294 92.9067 99.5645 92.7853 100.135C92.2875 102.474 90.9383 103.044 89.9876 104.961C88.4058 108.149 90.1967 110.49 90.2984 114.3C90.4257 119.067 87.8963 125.675 82.8378 127.843C77.1548 130.279 70.3006 126.245 66.9839 122.239C65.0048 119.849 64.4303 117.644 63.5644 114.923C59.6948 102.761 57.5087 103.861 54.5495 94.2198C51.1665 83.1984 50.5015 70.2863 54.5495 66.2005C55.086 65.6589 56.5626 64.4071 57.5026 62.1532C58.7676 59.1203 57.6748 57.5967 58.7461 56.3937H58.7461V56.3937Z" fill="#F89627"/>
<path d="M94.1078 118.952C95.9633 121.313 96.2509 124.185 94.7504 125.368C93.2499 126.55 90.5299 125.594 88.6741 123.232C87.9199 122.299 87.3998 121.198 87.1574 120.022L79.4218 109.919L83.4189 106.866L91.3483 116.72C92.4329 117.232 93.3792 117.998 94.1078 118.952H94.1078H94.1078Z" fill="#A0616A"/>
<path d="M65.7777 66.6354C66.1219 66.5584 69.1336 65.9331 71.5013 67.7683C74.2212 69.8765 74.0894 73.6799 74.0432 75.0139C73.9365 78.0954 72.7307 78.598 72.0134 81.6207C70.6713 87.2759 73.2271 92.5314 74.6392 95.435C75.128 96.44 76.6982 99.5154 79.8239 102.827C85.9031 109.269 91.3272 112.658 91.3272 112.658L85.5002 117.846C85.5002 117.846 76.2183 115.012 69.9289 109.336C63.4775 103.513 53.5563 82.9107 51.4996 77.8922C51.3225 77.46 53.8314 84.4864 58.6218 74.1932C59.7144 71.8454 61.7165 67.5437 65.7777 66.6354H65.7777Z" fill="#F89627"/>
<path d="M145.674 224.573C141.97 225.141 139.261 227.516 139.622 229.877C139.984 232.237 143.279 233.689 146.984 233.12C148.468 232.913 149.88 232.353 151.102 231.487L166.765 228.88L165.72 222.68L150.092 224.894C148.666 224.435 147.151 224.325 145.674 224.573H145.674Z" fill="#FFB6B6"/>
<path d="M213.168 205.245L207.095 218.152L176.564 228.445L151.229 229.799L150.594 223.705L178.051 217.955L206.225 204.621L213.168 205.245Z" fill="#F89627"/>
<path d="M156.857 254.252L151.405 268.064L144.349 263.246L148.518 248.791L156.857 254.252Z" fill="#FFB6B6"/>
<path d="M134.085 249.112L119.652 262.925L125.425 269.028L140.179 257.464L134.085 249.112Z" fill="#FFB6B6"/>
<path d="M215.873 204.142L215.712 203.018L212.024 195.79L199.836 199.003L202.081 208.96L215.873 204.142Z" fill="#FFB6B6"/>
<path d="M210.741 252.325L211.116 257.149C211.116 257.149 212.665 277.379 200.157 278.986C187.648 280.592 182.195 282.198 174.818 269.67L163.272 249.112L156.528 257.149L147.556 250.076C147.556 250.076 153.971 225.021 159.102 224.057C159.744 223.937 160.385 223.877 161.017 223.864C165.265 223.775 169.27 225.856 171.812 229.266L186.365 248.791L191.657 246.382L210.741 252.325V252.325Z" fill="#303030"/>
<path d="M141.462 267.422L144.349 261.961L152.688 267.743C152.688 267.743 154.612 274.81 151.725 275.773C148.839 276.737 140.82 275.452 140.82 275.452C140.82 275.452 126.067 278.664 125.746 275.773C125.425 272.882 132.481 272.24 132.481 272.24L141.462 267.422L141.462 267.422H141.462Z" fill="#303030"/>
<path d="M172.894 263.567L150.603 249.501L139.217 259.712L131.519 250.718C131.519 250.718 145.631 229.839 149.801 228.876C153.971 227.912 160.706 227.27 160.706 227.27L181.233 246.221L172.894 263.567V263.567Z" fill="#303030"/>
<path d="M119.331 261.64L126.708 269.67L125.735 270.504C125.735 270.504 123.821 278.851 119.331 276.027C114.841 273.204 114.52 272.561 114.52 272.561C114.52 272.561 101.691 275.452 100.408 270.313C99.1246 265.173 102.653 266.137 102.653 266.137L105.856 268.064L119.331 261.64L119.331 261.64Z" fill="#303030"/>
<path d="M203.685 202.536C209.353 202.536 213.948 197.934 213.948 192.257C213.948 186.58 209.353 181.978 203.685 181.978C198.016 181.978 193.421 186.58 193.421 192.257C193.421 197.934 198.016 202.536 203.685 202.536Z" fill="#FFB6B6"/>
<path d="M201.279 206.872L216.033 202.375C216.033 202.375 221.806 215.866 220.844 221.97C219.882 228.073 211.116 257.149 211.116 257.149L191.657 246.382C191.657 246.382 191.336 239.958 190.374 237.067C189.412 234.176 186.365 225.342 193.1 217.954C199.836 210.566 201.279 206.872 201.279 206.872L201.279 206.872Z" fill="#F89627"/>
<path d="M168.807 274.322C166.406 277.203 165.944 280.779 167.775 282.309C169.606 283.839 173.036 282.744 175.437 279.861C176.412 278.723 177.101 277.368 177.446 275.908L187.466 263.573L182.585 259.617L172.332 271.635C170.96 272.236 169.751 273.157 168.807 274.322L168.807 274.322Z" fill="#FFB6B6"/>
<path d="M212.596 213.353L216.083 227.187L199.015 254.549L181.592 272.087L175.944 267.395L193.516 245.498L206.836 217.284L212.596 213.353Z" fill="#F89627"/>
<path d="M194.223 190.49C196.855 190.484 197.005 190.502 197.43 190.49C200.695 190.404 201.549 189.118 203.204 189.205C206.157 189.362 202.259 204.192 200.638 211.048C199.048 217.772 204.421 223.797 204.807 224.218C210.261 230.159 219.842 231.245 221.486 228.715C222.816 226.667 218.101 223.554 219.24 219.079C220.355 214.704 225.5 215.17 226.938 211.048C228.444 206.732 223.383 204.555 220.203 194.024C218.376 187.975 218.699 186.848 216.995 183.102C212.44 173.089 190.113 177.353 192.619 186.636C193.104 188.432 191.814 190.496 194.223 190.49V190.49Z" fill="#303030"/>
</svg>
