<svg width="244" height="239" viewBox="0 0 244 239" fill="none" xmlns="http://www.w3.org/2000/svg">
<g clip-path="url(#clip0_144_4235)">
<path d="M165.393 185.721C165.393 185.973 165.594 186.175 165.845 186.175H243.547C243.798 186.175 244 185.973 244 185.721C244 185.469 243.798 185.267 243.547 185.267H165.845C165.594 185.267 165.393 185.469 165.393 185.721Z" fill="black"/>
<path d="M75.3481 175.325H44.7842C44.0136 175.325 43.3867 174.696 43.3867 173.923C43.3867 173.15 44.0136 172.521 44.7842 172.521H75.3481C76.1186 172.521 76.7453 173.15 76.7453 173.923C76.7453 174.696 76.1186 175.325 75.3481 175.325H75.3481Z" fill="#F89627"/>
<path d="M20.7624 182.829C20.7624 183.081 20.964 183.283 21.215 183.283H98.9169C99.168 183.283 99.3696 183.081 99.3696 182.829C99.3696 182.577 99.168 182.375 98.9169 182.375H21.215C20.964 182.375 20.7624 182.577 20.7624 182.829Z" fill="black"/>
<path d="M184.701 91.3444C198.355 91.3444 209.424 80.2407 209.424 66.5437C209.424 52.8466 198.355 41.7429 184.701 41.7429C171.047 41.7429 159.978 52.8466 159.978 66.5437C159.978 80.2407 171.047 91.3444 184.701 91.3444Z" fill="#F7F7F7"/>
<path d="M0 214.167C0 214.419 0.201597 214.622 0.452641 214.622H199.106C199.357 214.622 199.559 214.419 199.559 214.167C199.559 213.916 199.357 213.713 199.106 213.713H0.452641C0.201597 213.713 0 213.916 0 214.167Z" fill="black"/>
<path d="M2.87351 183.505L2.23804 182.807L64.2595 126.034L86.6047 136.082L110.734 94.5719L130.559 84.9859L148.927 115.696C158.844 89.9417 183.714 62.9969 213.515 35.6595L214.248 36.255C186.298 63.0987 162.384 90.0643 148.812 117.342L131.822 88.853C131.02 87.5071 129.333 86.9872 127.915 87.6489L127.915 87.6489C117.079 92.707 108.04 100.963 102.008 111.314L86.8929 137.248L83.4426 135.697C71.9035 130.508 58.3949 132.682 49.0539 141.233L2.87351 183.505Z" fill="black"/>
<path d="M214.913 40.8282L213.971 40.8938L212.452 37.5905L209.05 36.8974L208.918 35.9598L214.525 35.1604L214.913 40.8282Z" fill="black"/>
<path d="M118.169 61.0405L121.503 48.1833L134.491 47.5566L138.377 65.2798L118.169 61.0405Z" fill="#FFB6B6"/>
<path opacity="0.1" d="M118.169 61.0405L121.503 48.1833L134.491 47.5566L138.377 65.2798L118.169 61.0405Z" fill="#303030"/>
<path d="M126.715 55.3785C135.373 55.3785 142.392 48.3377 142.392 39.6524C142.392 30.9672 135.373 23.9263 126.715 23.9263C118.057 23.9263 111.039 30.9672 111.039 39.6524C111.039 48.3377 118.057 55.3785 126.715 55.3785Z" fill="#FFB6B6"/>
<path d="M135.365 42.9812H135.365C135.365 42.9812 129.409 31.1445 122.432 31.8279C115.454 32.5113 111.778 33.3424 111.778 33.3424C111.778 33.3424 109.707 24.1234 119.458 20.5774C119.458 20.5774 107.06 8.31666 121.821 2.30225C136.583 -3.71217 144.844 3.95846 144.844 3.95846C144.844 3.95846 155.77 14.9011 142.008 23.0797C142.008 23.0797 152.227 36.8685 139.855 48.2336C139.855 48.2336 142.622 39.0367 139.735 40.7328C136.847 42.4288 135.365 42.9811 135.365 42.9811V42.9812L135.365 42.9811L135.365 42.9812Z" fill="black"/>
<path d="M109.419 126.069L107.334 128.074L92.2689 160.477L90.6199 214.074H115.931L127.804 187.532L135.803 213.818H158.561L163.837 166.101L149.655 132.355L109.419 126.069Z" fill="black"/>
<path d="M135.638 59.7339H118.735L100.349 69.6593L104.637 88.8484C104.637 88.8484 103.647 100.428 105.956 109.03C108.264 117.632 107.275 128.881 107.275 128.881L149.655 132.355L150.974 93.3149L150.315 67.178L135.638 59.7339Z" fill="#F89627"/>
<path d="M103.153 69.8248C103.153 69.8248 92.9285 70.1556 91.2795 76.7725C89.6304 83.3895 88.3112 117.467 88.3112 117.467C88.3112 117.467 89.3006 137.687 100.349 128.073C111.398 118.459 110.408 89.3447 110.408 89.3447L103.153 69.8248Z" fill="#F89627"/>
<path d="M202.319 238.618H142.068C140.028 238.618 138.367 236.953 138.367 234.906V172.424C138.367 170.377 140.028 168.712 142.068 168.712H202.319C204.36 168.712 206.02 170.377 206.02 172.424V234.906C206.02 236.953 204.36 238.618 202.319 238.618Z" fill="white"/>
<path d="M202.319 239H142.068C139.818 239 137.987 237.164 137.987 234.906V172.424C137.987 170.167 139.818 168.33 142.068 168.33H202.319C204.569 168.33 206.4 170.167 206.4 172.424V234.906C206.4 237.164 204.569 239 202.319 239ZM142.068 169.093C140.237 169.093 138.748 170.588 138.748 172.424V234.906C138.748 236.743 140.237 238.237 142.068 238.237H202.319C204.15 238.237 205.639 236.743 205.639 234.906V172.424C205.639 170.588 204.15 169.093 202.319 169.093H142.068Z" fill="black"/>
<path d="M174.571 222.204H169.605C169.001 222.204 168.509 221.823 168.509 221.355V199.907C168.509 199.439 169.001 199.058 169.605 199.058H174.571C175.176 199.058 175.668 199.439 175.668 199.907V221.355C175.668 221.823 175.176 222.204 174.571 222.204Z" fill="#2C61F4"/>
<path d="M158.154 209.565C157.665 209.565 157.268 209.872 157.268 210.251V221.331C157.268 221.709 157.665 222.017 158.154 222.017H163.119C163.608 222.017 164.005 221.709 164.005 221.331V210.251C164.005 209.872 163.608 209.565 163.119 209.565H158.154Z" fill="#2C61F4"/>
<path d="M186.023 222.204H181.057C180.452 222.204 179.961 221.823 179.961 221.355V186.206C179.961 185.738 180.452 185.357 181.057 185.357H186.023C186.628 185.357 187.119 185.738 187.119 186.206V221.355C187.119 221.823 186.628 222.204 186.023 222.204Z" fill="#2C61F4"/>
<path d="M79.1605 68.1343H73.488C72.7974 68.1343 72.2355 67.6992 72.2355 67.1644V42.6652C72.2355 42.1304 72.7974 41.6954 73.488 41.6954H79.1605C79.8512 41.6954 80.413 42.1304 80.413 42.6652V67.1644C80.413 67.6992 79.8512 68.1343 79.1605 68.1343V68.1342V68.1343Z" fill="#F89627"/>
<path d="M60.4068 53.6966C59.8489 53.6966 59.3948 54.0482 59.3948 54.4802V67.137C59.3948 67.5691 59.8489 67.9206 60.4068 67.9206H66.0793C66.6372 67.9206 67.0913 67.5691 67.0913 67.137V54.4802C67.0913 54.0482 66.6372 53.6966 66.0793 53.6966H60.4068Z" fill="#F89627"/>
<path d="M92.2417 68.1343H86.5692C85.8785 68.1343 85.3167 67.6992 85.3167 67.1644V27.0146C85.3167 26.4798 85.8785 26.0448 86.5692 26.0448H92.2417C92.9323 26.0448 93.4942 26.4798 93.4942 27.0146V67.1644C93.4942 67.6992 92.9323 68.1343 92.2417 68.1343Z" fill="#F89627"/>
<path d="M162.957 177.803C165.895 177.521 167.918 173.538 167.476 168.905C167.325 167.052 166.733 165.262 165.751 163.685L165.185 158.442L165.271 158.416L166.695 133.555C167.026 127.774 164.745 122.094 160.35 118.341C157.736 116.108 154.947 114.977 153.153 117.799C150.178 122.48 154.032 141.778 156.563 152.749L157.545 164.473C156.878 166.209 156.636 168.079 156.837 169.928C157.279 174.559 160.019 178.085 162.957 177.803V177.803Z" fill="#FFB6B6"/>
<path d="M146.687 67.8397C146.687 67.8397 155.262 64.5312 159.22 74.4566C163.177 84.382 167.465 133.347 167.465 133.347L147.347 129.708L146.687 67.8397V67.8397V67.8397Z" fill="#F89627"/>
<path d="M28.9416 62.985H17.3953C16.6247 62.985 15.9977 62.356 15.9977 61.583C15.9977 60.8101 16.6247 60.1814 17.3953 60.1814H28.9416C29.7121 60.1814 30.3388 60.8101 30.3388 61.583C30.3388 62.356 29.7121 62.985 28.9416 62.985Z" fill="#F7F7F7"/>
<path d="M28.9416 43.1141H17.3953C16.6247 43.1141 15.9977 42.4852 15.9977 41.7122C15.9977 40.9392 16.6247 40.3106 17.3953 40.3106H28.9416C29.7121 40.3106 30.3388 40.9392 30.3388 41.7122C30.3388 42.4852 29.7121 43.1141 28.9416 43.1141Z" fill="#F7F7F7"/>
<path d="M28.9416 28.7842H17.3953C16.6247 28.7842 15.9977 28.1552 15.9977 27.3823C15.9977 26.6093 16.6247 25.9806 17.3953 25.9806H28.9416C29.7121 25.9806 30.3388 26.6093 30.3388 27.3823C30.3388 28.1552 29.7121 28.7842 28.9416 28.7842Z" fill="#F7F7F7"/>
<path d="M15.5345 68.2036C15.5345 68.4554 15.7361 68.6576 15.9872 68.6576H93.6891C93.9401 68.6576 94.1417 68.4554 94.1417 68.2036C94.1417 67.9518 93.9401 67.7495 93.6891 67.7495H15.9872C15.7361 67.7495 15.5345 67.9518 15.5345 68.2036Z" fill="black"/>
<path d="M142.572 222.732C142.572 222.983 142.773 223.186 143.024 223.186H220.726C220.977 223.186 221.179 222.983 221.179 222.732C221.179 222.48 220.977 222.277 220.726 222.277H143.024C142.773 222.277 142.572 222.48 142.572 222.732Z" fill="black"/>
<path d="M90.3209 65.9081C87.3828 66.1903 85.3596 70.1731 85.8016 74.8059C85.9529 76.659 86.5444 78.4487 87.5265 80.0255L88.0928 85.2688L88.0061 85.2949L86.5827 110.156C86.2518 115.936 88.5328 121.617 92.9274 125.37C95.5417 127.603 98.3306 128.734 100.124 125.912C103.1 121.231 99.2453 101.933 96.714 90.9617L95.7326 79.2375C96.3993 77.502 96.6419 75.6316 96.44 73.7828C95.9987 69.1515 93.2589 65.6259 90.3209 65.9081H90.3209V65.9081Z" fill="#FFB6B6"/>
</g>
<defs>
<clipPath id="clip0_144_4235">
<rect width="244" height="239" fill="white"/>
</clipPath>
</defs>
</svg>
