<svg width="312" height="228" viewBox="0 0 312 228" fill="none" xmlns="http://www.w3.org/2000/svg">
<g clip-path="url(#clip0_144_4062)">
<rect x="75.5" y="19.5" width="165" height="100" rx="6.5" fill="white" stroke="#303030"/>
<path d="M315 225.454H-4V226.085H315V225.454Z" fill="#303030"/>
<path d="M315 193.205H-4V193.836H315V193.205Z" fill="#303030"/>
<path d="M141.377 123.17C141.606 126.05 143.277 128.266 145.109 128.12C146.941 127.973 148.24 125.521 148.011 122.64C147.935 121.488 147.584 120.37 146.988 119.382L145.864 107.192L140.157 107.842L141.872 119.79C141.439 120.861 141.27 122.02 141.377 123.17Z" fill="#FFB6B6"/>
<path d="M134.56 66.2988C134.56 66.2988 139.895 63.4737 142.6 67.6955C145.305 71.9173 147.172 117.577 147.172 117.577L139.674 118.378L137 86L134.56 66.2988Z" fill="#F89627"/>
<path d="M123.488 190.822L127.831 190.822L129.897 174.062L123.487 174.062L123.488 190.822Z" fill="#FFB6B6"/>
<path d="M138.369 190.724C138.504 190.952 138.575 191.687 138.575 191.952C138.575 192.767 137.915 193.427 137.101 193.427H123.65C123.095 193.427 122.644 192.976 122.644 192.421V191.861C122.644 191.861 121.979 190.177 123.349 188.101C123.349 188.101 125.052 189.726 127.596 187.181L128.346 185.821L133.777 189.795L136.787 190.166C137.446 190.247 138.03 190.153 138.369 190.724H138.369H138.369Z" fill="black"/>
<path d="M148.622 190.103L152.83 189.027L150.686 172.277L144.475 173.865L148.622 190.103Z" fill="#FFB6B6"/>
<path d="M163.016 186.323C163.203 186.51 163.454 187.205 163.52 187.462C163.722 188.251 163.245 189.054 162.457 189.256L149.424 192.586C148.886 192.724 148.338 192.399 148.201 191.861L148.062 191.318C148.062 191.318 147.001 189.851 147.815 187.501C147.815 187.501 149.867 188.654 151.702 185.558L152.092 184.055L158.337 186.56L161.346 186.174C162.004 186.089 162.546 185.854 163.016 186.323H163.016V186.323Z" fill="black"/>
<path d="M119.894 62.6959L119.688 61.2008L122.136 55.2205L128.861 54.4729L130.313 63.0345L119.894 62.6959Z" fill="#FFB6B6"/>
<path opacity="0.1" d="M119.894 62.6959L119.688 61.2008L122.136 55.2205L128.861 54.4729L130.313 63.0345L119.894 62.6959Z" fill="#303030"/>
<path d="M112.048 104.932L109.059 113.155L111.301 117.64L122.51 182.677H129.961L128.488 125.116L145.674 182.677H153.049L147.118 143.804L142.685 107.922L139.996 106.26L126.993 98.9517L112.048 104.932Z" fill="black"/>
<path d="M131.103 110.539L126.62 111.286L120.642 97.0829H134.092L131.103 110.539Z" fill="white"/>
<path d="M140.07 106.801L131.103 110.539L128.114 103.811L126.62 111.286L110.927 106.233L113.169 97.0829L110.927 67.1811L118.841 61.9035L119.894 61.2008L129.608 61.9483L130.46 62.4118L136.334 65.6861L137.828 90.355L140.07 106.801Z" fill="#F89627"/>
<path d="M130.46 62.4118L126.246 80.2631L118.841 61.9035L119.894 61.2008L129.608 61.9483L130.46 62.4118Z" fill="white"/>
<path d="M125.499 59.7057C129.419 59.7057 132.597 56.5262 132.597 52.6041C132.597 48.6819 129.419 45.5024 125.499 45.5024C121.578 45.5024 118.4 48.6819 118.4 52.6041C118.4 56.5262 121.578 59.7057 125.499 59.7057Z" fill="#FFB6B6"/>
<path d="M120.962 53.227L122.496 53.8967L123.165 49.8786C123.165 49.8786 125.843 48.5393 127.851 49.209C129.859 49.8786 133.206 49.209 133.206 49.209C133.206 49.209 133.206 42.5122 128.52 42.5122C123.835 42.5122 119.149 43.1819 119.149 45.1909C119.149 47.2 117.141 49.209 117.141 49.209C117.141 49.209 114.463 53.227 117.141 55.9057C119.818 58.5844 121.157 58.5844 121.157 58.5844L120.962 53.227Z" fill="black"/>
<path d="M107.188 122.96C107.11 125.847 108.536 128.229 110.374 128.278C112.211 128.327 113.763 126.026 113.84 123.137C113.887 121.983 113.657 120.835 113.169 119.789L113.345 107.548L107.601 107.589L108.038 119.651C107.495 120.67 107.203 121.805 107.188 122.96V122.96Z" fill="#FFB6B6"/>
<path d="M114.294 65.672C114.294 65.672 109.437 64.177 107.195 68.6622C104.953 73.1475 107.942 118.748 107.942 118.748H115.482L113.481 86.6032L114.294 65.672V65.672Z" fill="#F89627"/>
<path d="M300.615 150.625L282.502 145.078C282.101 144.955 281.681 144.91 281.264 144.946L189.465 152.762C188.156 152.873 187.827 154.639 189.008 155.215L191.949 156.648H191.87V225.253H194.641V157.96L203.857 162.452C204.562 162.795 205.349 162.936 206.129 162.857L207.11 162.758V225.253H209.88V162.478L280.882 155.303V225.253H283.653V155.023L295.429 153.833V225.253H298.2V153.553L300.348 153.336C301.856 153.183 302.064 151.069 300.615 150.625H300.615Z" fill="black"/>
<path d="M216.115 152.49C217.846 152.49 243.476 149.372 243.476 149.372L247.286 154.569L220.617 159.766L216.115 152.49V152.49Z" fill="#F7F7F7"/>
<path d="M244.244 222.589L239.791 222.581L237.702 205.395L244.274 205.406L244.244 222.589Z" fill="#A0616A"/>
<path d="M228.988 222.462C228.849 222.695 228.775 223.449 228.774 223.72C228.773 224.555 229.448 225.234 230.283 225.235L244.073 225.259C244.642 225.26 245.105 224.799 245.106 224.229L245.107 223.655C245.107 223.655 245.792 221.93 244.391 219.799C244.391 219.799 242.642 221.462 240.039 218.849L239.272 217.453L233.697 221.517L230.61 221.892C229.935 221.974 229.336 221.877 228.988 222.462H228.988L228.988 222.462Z" fill="black"/>
<path d="M268.143 214.597L264.629 217.248L252.736 204.953L257.921 201.04L268.143 214.597Z" fill="#A0616A"/>
<path d="M256.046 223.601C256.076 223.868 256.467 224.506 256.629 224.72C257.125 225.379 258.062 225.51 258.72 225.013L269.6 216.803C270.049 216.464 270.139 215.824 269.8 215.375L269.458 214.922C269.458 214.922 268.969 213.154 266.595 212.311C266.595 212.311 266.209 214.665 262.599 214.16L261.163 213.518L259.194 220.047L256.985 222.184C256.502 222.652 255.972 222.932 256.047 223.601L256.046 223.601V223.601Z" fill="black"/>
<path d="M258.836 125.775C258.836 129.883 255.508 133.213 251.401 133.213C247.295 133.213 243.966 129.883 243.966 125.775C243.966 121.667 247.295 118.337 251.401 118.337C255.508 118.337 258.836 121.667 258.836 125.775Z" fill="#A0616A"/>
<path d="M258.136 168.661C258.136 168.661 230.761 167.111 229.211 170.212C227.662 173.312 237.588 215.898 237.588 215.898L246.444 214.041L242.124 184.163C242.124 184.163 264.968 190.215 268.067 182.981C271.166 175.747 270.274 173.054 270.274 173.054L258.136 168.661V168.661Z" fill="black"/>
<path d="M265.15 163.457C265.15 163.457 238.34 169.207 237.665 172.607C236.991 176.007 257.825 214.449 257.825 214.449L265.874 210.314L253.807 182.644C253.807 182.644 277.438 182.435 278.514 174.639C279.589 166.842 278.017 164.481 278.017 164.481L265.15 163.457V163.457Z" fill="black"/>
<path d="M268.208 134.299H255.328L246.515 148.768C246.515 148.768 244.449 158.117 246.515 159.126C248.581 160.135 248.581 170.987 248.581 170.987L270.274 173.054C270.274 173.054 273.373 140.5 272.34 137.4C271.307 134.299 268.208 134.299 268.208 134.299V134.299Z" fill="#F89627"/>
<path d="M247.806 143.859L246.515 159.126L231.99 152.96L228.524 151.216C227.845 150.33 226.964 149.62 225.955 149.145C223.444 147.921 220.779 148.224 220.001 149.822C219.222 151.419 220.626 153.706 223.135 154.93C224.132 155.432 225.234 155.689 226.35 155.678L236.492 161.441L236.504 161.419L236.549 161.499L252.454 168.145L256.114 148.102L247.806 143.859H247.806Z" fill="#A0616A"/>
<path d="M246.256 126.807C246.256 126.807 238.509 127.84 241.608 121.123C241.608 121.123 241.135 117.481 243.437 117.235C245.74 116.989 248.839 112.855 248.839 112.855C248.839 112.855 255.944 109.238 259.623 112.855C263.301 116.472 274.148 137.658 274.148 137.658L266.917 145.409C266.917 145.409 262.569 133.976 257.512 135.3C252.454 136.625 247.806 140.573 247.806 140.573C247.806 140.573 242.673 138.004 244.981 135.764C247.289 133.524 246.256 126.807 246.256 126.807Z" fill="black"/>
<path d="M256.586 138.175C256.586 138.175 252.971 133.524 250.388 137.141C247.806 140.758 245.74 145.409 245.74 145.409L256.07 149.026L256.587 138.175H256.586Z" fill="#F89627"/>
<path d="M295.809 224.225L283.807 186.062L283.809 186.062H283.837L283.788 185.999L283.787 185.998L282.932 183.28L282.933 183.279C284.235 182.157 285.121 180.552 285.298 178.706L279.812 148.519C280.189 144.555 277.152 141.091 273.172 140.948L260.794 140.917C257.275 140.793 254.227 143.336 253.714 146.822L253.441 148.672L249.648 174.482C249.51 175.41 249.565 176.325 249.783 177.181L247.054 177.538L246.226 177.649L242.953 178.075L242.943 178.078L242.534 178.13H242.091V189.218H242.119V224.657C242.119 224.886 242.306 225.073 242.534 225.073C242.766 225.073 242.953 224.886 242.953 224.657V189.218H247.809L252.655 224.616C252.686 224.824 252.862 224.976 253.07 224.976C253.088 224.976 253.108 224.976 253.126 224.973C253.354 224.941 253.514 224.73 253.482 224.501L248.654 189.218H271.953C274.267 189.218 276.41 188.484 278.156 187.226L287.394 224.551C287.442 224.74 287.611 224.865 287.798 224.865C287.832 224.865 287.866 224.861 287.901 224.852C288.124 224.795 288.259 224.568 288.202 224.345L278.875 186.659C278.999 186.556 279.123 186.446 279.24 186.332L282.949 186.114L295.013 224.475C295.069 224.653 295.234 224.768 295.411 224.768C295.452 224.768 295.495 224.761 295.536 224.748C295.756 224.679 295.878 224.445 295.809 224.225V224.225ZM282.139 183.872C282.171 183.854 282.198 183.834 282.226 183.816L282.226 183.816L282.315 184.1L282.139 183.872V183.872Z" fill="white"/>
<path d="M60.3092 159.537L68.3866 154.398L71.6705 156.38L60.3092 169.44V159.537Z" fill="#FFB6B6"/>
<path d="M49.2636 139.647C49.2636 139.647 43.8985 140.91 46.4232 148.171C48.948 155.433 57.1533 170.587 59.6781 169.64C62.2028 168.693 62.5184 159.221 62.5184 159.221C62.5184 159.221 62.2028 159.537 60.9404 158.274C59.6781 157.011 59.6781 157.588 59.6781 156.195C59.6781 154.801 58.6456 153.768 58.6456 153.768L57.4689 151.328C57.4689 151.328 57.4689 139.962 52.7351 139.331C48.0012 138.7 49.2636 139.647 49.2636 139.647Z" fill="#F89627"/>
<path d="M74.3293 156.04C76.4245 153.944 77.0739 151.196 75.7798 149.901C74.4858 148.606 71.7382 149.256 69.643 151.352C67.5478 153.448 66.8984 156.197 68.1925 157.492C69.4866 158.786 72.2341 158.136 74.3293 156.04Z" fill="#FFB6B6"/>
<path d="M28.3666 181.48L33.8782 190.606L65.9978 188.705L57.4453 177.677L28.3666 181.48Z" fill="white"/>
<path d="M37.964 224.165C37.7769 224.165 37.614 224.027 37.5879 223.836L27.99 153.71C27.9615 153.502 28.107 153.31 28.315 153.282C28.5229 153.252 28.7146 153.399 28.7432 153.607L38.3411 223.733C38.3695 223.941 38.224 224.133 38.0161 224.161C37.9985 224.164 37.9812 224.165 37.964 224.165Z" fill="white"/>
<path d="M28.3666 224.254C28.1566 224.254 27.9865 224.084 27.9865 223.874V153.672C27.9865 153.462 28.1566 153.292 28.3666 153.292C28.5765 153.292 28.7467 153.462 28.7467 153.672V223.874C28.7467 224.084 28.5765 224.254 28.3666 224.254Z" fill="white"/>
<path d="M76.5459 223.975C76.3843 223.975 76.2344 223.871 76.1834 223.709L53.4716 151.491C53.4086 151.291 53.5199 151.077 53.7201 151.014C53.9203 150.952 54.1338 151.063 54.1968 151.263L76.9085 223.48C76.9716 223.681 76.8603 223.894 76.66 223.957C76.6221 223.969 76.5836 223.975 76.5459 223.975V223.975Z" fill="white"/>
<path d="M69.6086 224.064C69.4389 224.064 69.2843 223.95 69.2405 223.777L53.4658 160.041C53.4141 159.837 53.5371 159.63 53.7405 159.578C53.9445 159.527 54.1508 159.649 54.2026 159.853L69.9773 223.59C70.029 223.793 69.9061 224 69.7026 224.052C69.6712 224.06 69.6396 224.064 69.6086 224.064H69.6086Z" fill="white"/>
<path d="M28.3666 154.791L54.6895 154.386L59.5359 182.05H28.7467L28.3666 154.791Z" fill="white"/>
<path d="M68.8183 195.469L62.1844 207.154L69.8869 208.85L73.0981 200.54L68.8183 195.469Z" fill="#FFB6B6"/>
<path d="M64.5672 204.948C64.5672 204.948 64.3094 203.042 62.794 203.647C61.2785 204.252 56.9048 206.499 56.9048 206.499C56.9048 206.499 68.3125 225.042 70.4774 224.179C72.6424 223.315 70.0508 218.073 70.0508 218.073L70.6227 208.807L64.5672 204.948H64.5672Z" fill="black"/>
<path d="M39.4803 172.797C39.4803 172.797 37.1133 183.69 44.3719 187.478C51.6305 191.267 76.4044 181.953 76.4044 181.953L65.0432 198.983L72.9329 202.159C72.9329 202.159 90.9216 178.48 89.6593 174.692C88.3969 170.903 79.8759 170.587 79.8759 170.587L60.6249 171.534L55.5754 169.956L39.4803 172.797H39.4803Z" fill="black"/>
<path d="M59.0042 200.655L48.5752 209.123L55.1325 213.507L61.1463 206.936L59.0042 200.655Z" fill="#FFB6B6"/>
<path d="M51.5969 207.936C51.5969 207.936 52.0499 206.067 50.4184 206.079C48.7869 206.09 43.8956 206.591 43.8956 206.591C43.8956 206.591 47.7763 228.016 50.107 228C52.4378 227.984 51.9304 222.158 51.9304 222.158L55.8334 213.736L51.5969 207.936V207.936Z" fill="black"/>
<path d="M39.924 168.857C39.924 168.857 33.7574 178.141 39.1403 184.313C44.5232 190.484 70.9865 190.827 70.9865 190.827L54.2096 202.554L60.4033 208.384C60.4033 208.384 85.7717 192.877 85.9739 188.889C86.1761 184.9 78.3542 181.504 78.3542 181.504L60.0784 175.378L55.9493 172.07L39.924 168.857H39.924Z" fill="black"/>
<path d="M55.7655 147.354C55.7655 147.354 49.7693 145.143 46.929 145.143C46.6576 145.143 46.3893 145.175 46.1211 145.232C44.3033 145.617 42.6306 147.18 41.829 148.032C41.5166 148.367 41.3367 148.591 41.3367 148.591C41.3367 148.591 41.3556 148.373 41.3935 147.991C41.5797 145.983 42.2677 139.394 43.5017 135.176C43.9435 133.67 44.4516 132.467 45.0354 131.883C46.3956 130.519 47.0236 128.884 47.314 127.665C47.5602 126.62 47.5602 125.885 47.5602 125.885L45.2595 124.893L44.8334 122.109C44.7577 122.437 44.4074 123.078 43.2302 124.306C43.1293 124.41 43.0188 124.499 42.902 124.574C41.2041 125.641 37.7421 123.785 35.877 122.617C36.6533 119.917 38.0609 117.449 40.6171 117.044C46.6134 116.097 46.6134 112.624 50.4005 116.413C50.7129 116.726 51.0285 117.025 51.3441 117.316C52.556 119.633 52.9978 122.74 53.1556 124.9C53.2692 126.412 53.2408 127.463 53.2408 127.463C53.2408 127.463 54.8188 136.935 57.3435 138.829C59.8682 140.723 55.7655 147.354 55.7655 147.354V147.354Z" fill="black"/>
<path d="M44.0885 132.199L39.8243 138.456L49.4536 141.039V132.199H44.0885Z" fill="#FFB6B6"/>
<path opacity="0.1" d="M44.0885 132.199L39.8243 138.456L49.4536 141.039V132.199H44.0885Z" fill="#303030"/>
<path d="M50.0526 138.226L40.9004 134.437C40.9004 134.437 28.5924 139.805 29.5391 150.223C30.4859 160.642 39.3225 178.638 39.3225 178.638L56.9956 171.061L55.102 150.855L50.0526 138.226V138.226Z" fill="#F89627"/>
<path d="M46.1285 134.993C50.5878 134.993 54.2029 131.376 54.2029 126.915C54.2029 122.454 50.5878 118.837 46.1285 118.837C41.6691 118.837 38.0541 122.454 38.0541 126.915C38.0541 131.376 41.6691 134.993 46.1285 134.993Z" fill="#FFB6B6"/>
<path d="M57.0278 123.99C55.4499 125.569 54.1875 127.147 54.1875 127.147L53.5563 124.622C53.5563 124.622 53.4112 124.729 53.1555 124.9C52.1551 125.581 49.4694 127.296 47.3139 127.665C46.3545 127.829 45.5024 127.725 44.947 127.147C43.7699 125.919 43.4195 125.278 43.3438 124.95L42.9177 127.735L40.6171 128.726C40.6171 128.726 40.6171 132.193 43.1418 134.725C43.2649 134.848 43.3848 134.999 43.5016 135.176C44.7072 136.995 45.5719 141.446 46.121 145.232C46.607 148.597 46.8405 151.433 46.8405 151.433C46.8405 151.433 44.4515 148.44 41.829 148.032C41.6838 148.01 41.5386 147.994 41.3935 147.991C41.3461 147.985 41.2956 147.985 41.2483 147.985C38.408 147.985 32.4117 150.195 32.4117 150.195C32.4117 150.195 28.309 143.565 30.8338 141.671C33.3585 139.776 34.9365 130.305 34.9365 130.305C34.9365 130.305 34.8323 126.251 35.8769 122.617C36.6533 119.917 38.0608 117.449 40.6171 117.044C46.6133 116.097 46.6133 112.624 50.4004 116.413C50.7129 116.726 51.0285 117.025 51.344 117.316C54.8723 120.562 58.4764 122.541 57.0278 123.99V123.99Z" fill="black"/>
<path d="M21.6142 166.371H18.6155V225.62H21.6142V166.371Z" fill="black"/>
<path d="M94.3328 166.371H91.3341V225.62H94.3328V166.371Z" fill="black"/>
<path d="M75.216 141.247H55.3496V161.122H75.216V141.247Z" fill="#2C61F4"/>
<path d="M43.8984 162.379L51.9758 157.24L55.2597 159.221L43.8984 172.282V162.379Z" fill="#FFB6B6"/>
<path d="M32.8528 142.488C32.8528 142.488 27.4877 143.751 30.0125 151.013C32.5372 158.274 40.7426 173.429 43.2673 172.482C45.792 171.534 46.1076 162.063 46.1076 162.063C46.1076 162.063 45.792 162.379 44.5297 161.116C43.2673 159.853 43.2673 160.43 43.2673 159.036C43.2673 157.643 42.2348 156.61 42.2348 156.61L41.0582 154.17C41.0582 154.17 41.0582 142.804 36.3243 142.173C31.5904 141.541 32.8528 142.488 32.8528 142.488H32.8528Z" fill="#F89627"/>
<path d="M57.9186 158.882C60.0137 156.786 60.6632 154.037 59.3691 152.743C58.075 151.448 55.3274 152.098 53.2323 154.194C51.1371 156.29 50.4877 159.038 51.7817 160.333C53.0758 161.628 55.8234 160.978 57.9186 158.882Z" fill="#FFB6B6"/>
<path d="M100.33 164.121H9.61938V170.871H100.33V164.121Z" fill="black"/>
<path d="M192.492 110.123H179.095C178.033 110.123 177.172 110.984 177.172 112.046V117.574C177.172 118.636 178.033 119.498 179.095 119.498H192.492C193.554 119.498 194.415 118.636 194.415 117.574V112.046C194.415 110.984 193.554 110.123 192.492 110.123Z" fill="black"/>
<path d="M220.605 115.65H207.208C206.146 115.65 205.285 116.511 205.285 117.574V117.574C205.285 118.636 206.146 119.498 207.208 119.498H220.605C221.667 119.498 222.527 118.636 222.527 117.574C222.527 116.511 221.667 115.65 220.605 115.65Z" fill="#2C61F4"/>
</g>
<defs>
<clipPath id="clip0_144_4062">
<rect width="312" height="228" fill="white"/>
</clipPath>
</defs>
</svg>
